<svg width="538" height="362" viewBox="0 0 538 362" fill="none" xmlns="http://www.w3.org/2000/svg">
<path d="M371.388 209.032C365.256 203.231 358.493 198.51 351.351 194.809L239.706 221.115C213.878 256.405 217.709 306.218 250.319 337.046C285.67 370.475 341.428 368.914 374.859 333.565C408.289 298.216 406.729 242.461 371.378 209.032H371.388Z" fill="#FF2929"/>
<path d="M351.361 194.811L538 150.839L502.459 0L0 118.381L35.5412 269.22L239.716 221.118C241.886 218.147 244.247 215.266 246.848 212.516C274.477 183.298 317.35 177.186 351.351 194.811H351.361Z" fill="white"/>
<path d="M246.858 212.517C244.257 215.268 241.897 218.148 239.726 221.119L351.371 194.812C317.361 177.188 274.497 183.299 246.868 212.517H246.858Z" fill="#161E6D"/>
</svg>
