<svg width="542" height="344" viewBox="0 0 542 344" fill="none" xmlns="http://www.w3.org/2000/svg">
<path d="M542 324.236L398.658 324.337H320.562C321.505 323.457 322.411 322.549 323.289 321.642C323.289 321.642 323.301 321.62 323.326 321.578C335.78 308.542 343.44 290.859 343.44 271.462C343.44 270.939 343.44 270.417 343.412 269.867V269.839C342.955 249.846 334.49 231.906 321.056 219.072C321.056 219.03 321.047 219.008 321.029 219.008C320.864 218.88 320.736 218.715 320.571 218.587C307.659 206.394 290.135 198.923 270.991 198.923C270.469 198.923 269.92 198.923 269.399 198.96H269.334C250.776 199.345 233.966 206.725 221.41 218.587C220.468 219.467 219.562 220.374 218.683 221.282C218.641 221.306 218.619 221.328 218.619 221.346C206.192 234.381 198.569 252.064 198.569 271.462V273.084C199.027 293.068 207.492 311.017 220.889 323.851C220.913 323.894 220.934 323.915 220.953 323.915C221.117 324.043 221.246 324.208 221.41 324.337H143.315C143.315 324.337 143.352 324.438 143.379 324.465L0.0366043 324.593L0 218.669L143.315 218.605V218.568L41.8845 117.108L116.64 42.1864L218.034 143.656L217.969 0.0366679L323.674 0L323.774 143.564L425.068 41.9939L499.887 116.815L398.621 218.412L541.936 218.348L542 324.236Z" fill="white"/>
<path d="M343.431 271.452C343.431 290.859 335.771 308.533 323.317 321.568C323.317 321.568 323.304 321.59 323.28 321.632C322.402 322.54 321.496 323.457 320.553 324.327H221.401C221.236 324.199 221.108 324.034 220.944 323.906C220.944 323.906 220.922 323.884 220.88 323.842C207.482 311.008 199.008 293.059 198.56 273.075V271.452C198.56 252.046 206.183 234.372 218.61 221.336C218.61 221.336 218.631 221.315 218.674 221.272C219.553 220.365 220.459 219.457 221.401 218.577C233.956 206.715 250.767 199.336 269.325 198.951H269.389C269.911 198.914 270.46 198.914 270.982 198.914C290.126 198.914 307.65 206.385 320.562 218.577C320.727 218.706 320.855 218.871 321.02 218.999C321.02 218.999 321.029 219.02 321.047 219.063C334.481 231.897 342.946 249.846 343.403 269.83V269.857C343.431 270.407 343.431 270.93 343.431 271.452Z" fill="#FF2929"/>
<path d="M320.562 324.336C308.007 336.198 291.196 343.577 272.611 343.972H272.546C272.025 344.008 271.512 344.008 270.991 344.008C251.819 344.008 234.359 336.528 221.419 324.345H320.571L320.562 324.336Z" fill="#161E6D"/>
<path d="M398.612 218.395V218.422H398.584L398.612 218.395Z" fill="white"/>
</svg>
